<?xml version="1.0" encoding="utf-8"?>
<!-- Generator: Adobe Illustrator 25.2.1, SVG Export Plug-In . SVG Version: 6.00 Build 0)  -->
<svg version="1.1" xmlns="http://www.w3.org/2000/svg" xmlns:xlink="http://www.w3.org/1999/xlink" x="0px" y="0px"
	 viewBox="0 0 688.39 677.58" style="enable-background:new 0 0 688.39 677.58;" xml:space="preserve">
<style type="text/css">
	.st0{fill:#010101;}
</style>
<g id="Layer_1">
</g>
<g id="Layer_2">
	<g>
		<g>
			<path class="st0" d="M686.14,357.68c-3.11-5.74-8.1-10.15-12.95-14.53c-16.05-14.47-31.46-29.79-44.63-46.93
				c-4.5-5.85-8.77-11.98-11.74-18.77c-6.99-16.02-6.1-34.19-7.16-51.65c-0.94-15.35-4.48-30.42-8.85-45.12
				c-0.39-1.3-3.32-10.43-6.17-19.14c1.83-1.39,3.2-3.4,3.74-5.83c8.71-39.49-9.81-73-10.6-74.41c-0.91-1.61-2.19-2.86-3.68-3.73
				c0.35-1.38,0.5-2.83,0.4-4.37c-1.48-21.31-29.01-23.88-45.41-24.7c-19.01-0.96-37.75,3.06-56.69,2.72
				c-2.04-0.04-4.15-0.17-5.95-1.14c-3.67-1.96-4.86-6.67-4.81-10.83s0.96-8.4-0.08-12.43c-1.92-7.49-12.52-11.32-18.04-6.81
				c-4.76,3.88-4.68,11.18-4.8,16.79c-0.85,37.94-0.51,75.76-0.34,113.7l0,3.04c-6.15,5.33-9.82,8.53-18.77,16.36V20.38
				c0.75-4.36-1.96-8.64-6.33-9.76C395.82,3.57,367.4,0,338.79,0C248.29,0,163.22,35.24,99.23,99.23S0,248.3,0,338.79
				s35.24,175.57,99.23,239.56c63.99,63.99,149.07,99.23,239.56,99.23c28.61,0,57.03-3.57,84.49-10.62c3.8-0.97,6.45-4.4,6.45-8.32
				V465.23l23.07,22.67v168.05c3.29,5.55,10.05,6.18,14.77,2.07c6.23-5.44,4.17-14.77,3.93-21.99c-0.56-15.94,5.57-32.28,18.5-42.03
				c18.54-14.01,44.76-10.5,66.44-8.75c14.2,1.15,28.67,2.04,42.58-1.08c22.74-5.09,41.09-21.86,38.53-46.36
				c-0.75-7.15-2.79-14.08-4.29-21.12c-1.12-5.25-1.83-11.15,1.08-15.66c4.36-6.77,13.49-8.17,16.83-16.07
				c1.71-4.06,1.17-8.99-1.38-12.57c-1.02-1.42-2.34-2.66-3.12-4.24c-0.76-1.58-0.82-3.73,0.52-4.88c0.65-0.56,1.51-0.79,2.32-1.04
				c7.06-2.23,13.18-7.91,15.49-15c2.8-8.54-2.7-16.71-7.48-23.55c-4.06-5.83-7.75-13.32-4.72-19.73c1.32-2.83,3.78-4.95,6.3-6.79
				c6.42-4.66,13.72-8.05,19.76-13.2C686.82,377.21,691.4,367.43,686.14,357.68z M534.4,108.95c9.49-5.03,19.21-9.62,29.12-13.77
				c2.04-0.85,4.52-1.97,7.05-3.35c1.16,2.27,5.02,10.35,7.59,21.68c-54.76,13.03-95.42,54.87-136.08,93.19
				c-4.94,4.65-9.8,9.24-14.59,13.68L257.32,378.19c-10.29,0.67-19.58,0.94-27.67,0.97c13.99-17.96,43.46-47.33,77.36-79.24
				c0.1,0.07,0.19,0.14,0.29,0.21c0,0,1.06-1.47,1.06-1.47c37.56-35.3,75.96-69.7,114.64-103.77
				C457.96,164.09,492.96,130.98,534.4,108.95z M209.17,485.76c-27.93,8.48-47.85,8.69-56.46,8.2c1.48-7.29,3.21-14.28,5.13-20.94
				c15.06-0.19,92.51-5.64,185.46-92.75l12.09,11.88C294.96,450.99,242.81,475.55,209.17,485.76z M365.64,402.24l12.63,12.42
				c-55.45,65.65-114.47,93.78-154.82,105.8c-38.38,11.44-67.38,10.85-75.55,10.38c0.46-7.8,1.24-15.34,2.31-22.62
				c2.09,0.16,4.84,0.3,8.23,0.3c11.38,0,29.82-1.52,53.72-8.64C247.65,489.3,302.54,463.75,365.64,402.24z M210.26,447.81
				c-22.24,7.67-39.04,9.92-47.74,10.57c2.54-7.23,5.26-14,8.05-20.27c3.87-0.74,60.19-12.02,106.74-47.1
				c11.91-1.24,24.8-3.03,38.46-5.51C273.49,421.12,235.94,438.95,210.26,447.81z M228.18,393.64c5.95,0,12.58-0.14,19.76-0.45
				c-27.05,15.7-54.53,24.32-69.24,28.21c5.89-11.14,12-20.88,17.73-29.11C202.12,392.84,213.07,393.64,228.18,393.64z
				 M206.59,378.59c3.76-4.74,7.07-8.56,9.67-11.43c0.91,0.78,1.83,1.56,2.75,2.34c-2.78,3.5-5.06,6.63-6.81,9.36
				C210.18,378.78,208.3,378.69,206.59,378.59z M278.71,256.56c-5.9-6.13-11.16-12.21-15.84-18.14
				c7.79-4.43,21.48-11.19,35.31-13.08c5.79,5.01,11.59,10.43,17.37,16.28C297.89,245.24,285.37,252.12,278.71,256.56z
				 M327.4,254.28c1.14,1.28,2.28,2.58,3.41,3.9c-8.37,7.67-16.69,15.37-24.84,22.99c-6-4.71-11.55-9.47-16.7-14.25
				C296.52,262.55,309.54,256.34,327.4,254.28z M254.26,226.77c-4.37-6.3-8.08-12.33-11.22-17.93l18.16-10.71
				c7.42,4.58,15.03,9.76,22.72,15.61C271.59,217.32,260.69,223.01,254.26,226.77z M236.44,196.03c-2.58-5.5-4.52-10.3-5.94-14.19
				c5.28,2.36,10.75,5.03,16.37,8.04L236.44,196.03z M295.38,291.13c-5.3,5.01-10.49,9.95-15.54,14.81
				c-65.32-48.06-87.58-114.29-93.91-139.14c6.14,1.42,12.72,3.2,19.67,5.44c2.47,0.8,5.02,1.68,7.64,2.62
				C215.26,183.28,230.83,239.78,295.38,291.13z M188.46,216.08c13.16,28.07,37.74,67.6,80.92,100
				c-5.66,5.54-11.09,10.92-16.2,16.09C177.71,266.89,153.88,204,147.47,161.5c5.3,0.18,13.17,0.73,22.94,2.28
				C172.23,172.42,177.17,191.99,188.46,216.08z M415.22,99.85v23.19l-25.44,16.54c-5.54-5.4-11.11-10.5-16.67-15.31
				C384.14,116,401.91,104.05,415.22,99.85z M361.76,114.83c-6.01-4.79-11.98-9.26-17.89-13.42c27.53-23.81,59.12-37.14,71.35-41.75
				v25.32C396.21,89.39,371.99,106.92,361.76,114.83z M415.22,140.2v26.7c-4.99-5.9-10.04-11.52-15.12-16.87L415.22,140.2z
				 M415.22,26.35v18.02c-6.76,2.25-48.41,16.97-83.66,48.72c-7.22-4.66-14.3-8.88-21.17-12.69c13.58-11.55,48.53-38.55,96.57-55.96
				C409.72,25.04,412.47,25.68,415.22,26.35z M340.81,17.21c13.16,0.08,26.27,0.94,39.26,2.61c-44.63,20.01-74.57,45.45-83.33,53.39
				c-6.97-3.49-13.64-6.54-19.95-9.21C288.15,52.18,312.61,29.15,340.81,17.21z M271.05,24.38c12.17-2.62,24.58-4.55,37.21-5.74
				c-22.03,14.6-38.91,32-45.85,39.63c-7.19-2.68-13.99-4.95-20.35-6.88C248.62,43.48,259.68,31.35,271.05,24.38z M239.05,33.03
				c-5.31,5.68-9.55,10.9-12.08,14.18c-5.98-1.5-11.33-2.64-15.96-3.53C220.14,39.71,229.5,36.15,239.05,33.03z M190.66,53.39
				l-0.12,1.85c0.32,0.02,32.63,2.38,76.38,20.22c39.21,15.99,95.73,47.99,144.95,110.02c-4.78,4.21-9.75,8.6-14.88,13.14
				C337.64,129.09,270.27,98.23,223.9,84.59c-26.54-7.8-49.14-11.02-64.98-12.3C169.1,65.41,179.7,59.1,190.66,53.39z M151.56,86.25
				c15.06,0.85,39.61,3.66,68.89,12.33c44.36,13.13,108.87,42.82,165.77,109.6c-5.45,4.85-11.03,9.83-16.69,14.91
				c-49.59-59.04-107.47-86.84-147.82-99.8c-36.11-11.6-64.36-13.67-74.91-14.03C148.12,99.14,150.06,91.3,151.56,86.25z
				 M145.52,123.62c8.83,0.27,36.84,2.06,72.35,13.55c38.45,12.43,93.66,39.08,140.95,95.55c-5.76,5.19-11.57,10.45-17.39,15.76
				c-46.73-54.25-97.16-78.94-132.13-90.15c-29.35-9.4-52.49-11.09-63.46-11.28C145.21,138.59,145.17,130.74,145.52,123.62z
				 M109.57,113.44c8.28-8.42,17.02-16.39,26.17-23.87c-3.57,14.85-7.16,39.55-2.96,70.77c6.07,45.09,30.31,112.66,110.36,182.15
				c-5.48,5.72-10.46,11.09-14.83,16.03c-72.11-60.79-100.46-125.05-111.52-168.42C107.29,152.83,108.56,124.2,109.57,113.44z
				 M79.61,148.6c4.72-6.42,9.67-12.65,14.84-18.7c0.03,15.23,1.67,37.03,8.2,62.96c5.77,22.92,16.1,51.37,34.49,82.05
				c-3.83,3.83-9.66,9.93-16.67,18.14C75.11,230.69,78.94,157.55,79.61,148.6z M64.95,170.31c1.19,30.63,9.08,85.28,46.11,134.21
				c-4.5,5.71-9.27,12.1-14.15,19.12c-37.2-46.27-47.17-104.53-49.34-121.22C52.76,191.36,58.57,180.64,64.95,170.31z M37.23,227
				c6.12,28.05,20.12,72.13,51.33,109.13c-3.88,6.06-7.87,12.68-11.85,19.79c-27.16-27.29-45.95-79.95-50.41-93.26
				C29.27,250.49,32.92,238.59,37.23,227z M20.93,289.65c9.69,23.99,26.5,58.9,48.75,79.46c-3.38,6.65-6.7,13.65-9.87,21
				c-21.42-17.8-42.15-57.63-42.54-58.38C17.57,317.47,18.81,303.42,20.93,289.65z M39.05,455.36c-3.1-7.95-5.89-16.06-8.36-24.3
				c5.12,4.24,9.36,7.16,11.97,8.84C41.34,444.96,40.13,450.11,39.05,455.36z M23.93,404.48c-2.92-14.03-4.92-28.39-5.94-43.01
				c9.33,14.55,22.47,32.38,36.18,42.49c-2.63,6.87-5.11,14-7.38,21.36C41.41,421.49,32.86,414.65,23.93,404.48z M49.58,479.38
				c13.03-99.33,74.91-170.67,95.46-191.94c3.77,5.7,7.81,11.45,12.17,17.25c-8.21,8.05-23.68,24.8-40.02,50.85
				c-19.49,31.07-43.6,81.32-53.3,150C58.72,497.08,53.95,488.34,49.58,479.38z M95.78,549.23c-6.95-8.02-13.51-16.39-19.66-25.07
				c7.51-74.44,32.77-128.19,52.89-160.4c14.92-23.9,29.23-39.73,37.14-47.65c4.49,5.5,9.27,11.03,14.35,16.56
				c-8.81,9.78-27.65,32.35-45.47,64.63C115.37,432.88,93.87,486.66,95.78,549.23z M111.28,565.9
				c-6.83-66.43,15.7-124.17,36.12-161.26c16.58-30.12,34.42-51.79,43.06-61.5c4.76,4.83,9.76,9.65,15.01,14.47
				c-9.56,10.52-27.21,32.16-42.81,63.51c-18.6,37.38-37.18,95.45-26.48,167.25C127.5,581.3,119.18,573.81,111.28,565.9z
				 M147.45,545.23c2,0.12,4.83,0.22,8.4,0.22c13.97,0,39.32-1.65,70.96-10.99c42.28-12.48,103.97-41.65,161.75-109.71l12.21,12
				c-62.81,75.25-127.77,106.56-171.7,119.54c-41.44,12.25-72.27,10.94-80.86,10.23C147.66,559.26,147.42,552.16,147.45,545.23z
				 M239.57,644.72c9.02-2.18,19.82-5.29,32.03-9.68c4.71,4.96,13.98,14.05,26.17,22.76C277.73,655.23,258.28,650.8,239.57,644.72z
				 M338.79,660.4c-2.34,0-4.68-0.04-7.01-0.09c-19.57-7.61-36.44-22.1-45.52-30.93c6.78-2.8,14.08-6.07,21.81-9.86
				c8.95,8.27,33.17,27.6,73.58,38.02C367.49,659.42,353.16,660.4,338.79,660.4z M412.55,648.62c-47.76-5.5-77.92-25.74-90.69-36.23
				c7.44-4.03,15.18-8.54,23.16-13.57c9.75,7.64,35.28,24.99,67.53,26.26V648.62z M412.55,610.67
				c-24.08-1.17-44.35-12.97-54.69-20.27c6.61-4.51,13.34-9.37,20.17-14.62c5.96,4.43,17.29,11.06,34.52,14.1V610.67z
				 M412.55,575.26c-10.56-2.18-18.05-5.83-22.78-8.82c7.52-6.19,15.13-12.85,22.78-20.02V575.26z M412.55,526.42
				c-52.53,52.22-103.97,78.98-138.41,92.32c-29.36,11.36-51.5,15.11-60.62,16.26c-11.94-5.07-23.51-10.83-34.66-17.25
				c14.89-0.74,34.24-3.12,56.74-9.18c44.87-12.07,110.76-41.58,176.94-113.33V526.42z M412.55,449.19v24.44
				c-67.1,77.55-134.69,108.53-179.86,120.83c-36.3,9.88-64.23,9.62-76.76,8.75c-0.96-0.66-1.92-1.32-2.88-1.99
				c-1.4-6.83-2.5-13.54-3.35-20.13c2.64,0.17,6.12,0.31,10.36,0.31c15.42,0,40.84-1.86,72.25-11.05
				c45.88-13.42,113.58-45.76,178.75-123.46l1.53,1.5C412.57,448.65,412.55,448.92,412.55,449.19z M345.92,362.69l15.8-14.8
				l89.72,85.78l0.85,33.57L345.92,362.69z M448.48,316.7l-26.14-25.62c9.87-9.29,19.21-18.57,28.26-27.66l-2.13,2.65v50.6
				L448.48,316.7z M449,337.36l0.66,26.09l-52.05-49.18l14.24-13.33L449,337.36z M450.18,383.72l0.75,29.55l-78.69-75.23
				l14.86-13.92L450.18,383.72z M567.88,267.07c-0.23,5.09-1.21,10.14-2.86,14.96c-1.19,3.47-3.21,10.31-7,11.85
				c-1.29,0.52-2.75,0.39-4.14,0.24c-11.32-1.25-23.34-3.32-33.83-7.91c-7.49-3.28-14.35-8.37-18.66-15.43
				c-0.85-1.41-1.32-3.22-0.4-4.65c0.1-0.17,0.24-0.33,0.39-0.5c0.69-0.7,1.63-1.14,2.52-1.55c17.53-7.9,37.1-14.73,56.58-13.55
				C567.35,250.96,568.11,262.22,567.88,267.07z M446.09,247.57c-11.16,11.24-22.71,22.85-35,34.37l-94.85,88.85
				c-12.52,2.34-24.42,4.07-35.52,5.32l156.56-145.2c4.82-4.47,9.71-9.07,14.67-13.76c39.01-36.76,77.85-76.86,128.36-89.38
				c0.48,6.54,0.29,13.61-1.05,20.92C521.03,172.16,484.57,208.84,446.09,247.57z"/>
		</g>
	</g>
</g>
</svg>
