<?xml version="1.0" encoding="utf-8"?>
<!-- Generator: Adobe Illustrator 25.2.1, SVG Export Plug-In . SVG Version: 6.00 Build 0)  -->
<svg version="1.1" id="Layer_1" xmlns="http://www.w3.org/2000/svg" xmlns:xlink="http://www.w3.org/1999/xlink" x="0px" y="0px"
	 viewBox="0 0 2000 2000" style="enable-background:new 0 0 2000 2000;" xml:space="preserve">
<style type="text/css">
	.st0{fill:none;stroke:#000000;stroke-width:85.541;stroke-linecap:round;stroke-miterlimit:10;}
</style>
<g>
	<path d="M585.8,1306.4c-36.4,2.1-72.2,14.8-101.1,37c-39.3,30.1-64.5,77.4-69.2,126.7c-5.2,54.3,14.6,110.7,53.2,149.4
		c38.6,38.6,95.3,58.5,149.5,51.7c40.6-5.1,78.1-24.1,112.2-46.7c18.9-12.6,36.9-26.3,55.1-39.9c16-11.9,34.5-30.5,53.9-36.1
		c21.2-6.2,41,11.8,49.1,30c5,11.2,7.2,24.3,2.7,35.7c-3.9,10.2-12.5,17.7-21,24.6c-20.3,16.6-41.5,32.1-63.2,46.9
		c-64.2,43.6-136.6,81.9-214.3,82.3c-28.9,0.1-57.8-5.1-85.2-14.5c-75.5-26.1-138.6-86.1-168.6-160.1c-46.6-115-10-250.9,88.3-326.5
		c96-73.9,221.3-71.6,325.7-16.5c60.7,32,113.2,77,164.1,122.5c55.6,49.7,108.7,102,163.6,152.3c52.5,48.2,107.5,94.5,173.3,123.6
		c6.5,2.9,13.2,5.6,19.9,8.1c77.4,29.2,150.3,23,213-35.5c55.4-51.6,70-141.2,39.7-209.6c-27.7-62.4-92.8-106.9-161-108.3
		c-39.9-0.8-79.1,12-114.2,30.9c-35.1,18.9-66.7,43.7-97.8,68.7c-14.9,12-31.3,24.6-50.5,25.2c-28.7,0.9-52.8-32.2-43-59.2
		c4.9-13.5,15.8-23.7,26.6-33.1c78.1-68.2,173.1-126.1,276.7-126.8c88.6-0.6,176.3,43.7,228.4,115.4
		c52.1,71.7,67.1,168.8,39.1,252.9c-19.1,57.4-57.9,107.6-107.4,142c-53.3,37-116,51.1-180.4,47.7c-132.2-6.8-242-94.2-335.3-180.1
		c-74.6-68.6-143.5-144.4-224.7-205.5c-56.7-42.7-123.8-78.3-194.8-75C587.3,1306.3,586.5,1306.4,585.8,1306.4z"/>
	<path d="M834.5,1200.7c-39.4-32.7-67.1-82.6-76.1-132c-12.1-66.7,11-133.2,52.2-185.6c49.5-62.9,99-125.7,148.5-188.7
		c25-31.8,49.9-63.6,74.9-95.4c21.4-27.3,41.2-55.3,70-75.5c34.1-23.8,76.3-36.4,117.8-29.1c46.7,8.3,87.3,40,107.9,82.6
		c15.3,31.6,22.9,66.6,35.8,99.2c12.7,32,27.4,63.2,44,93.4c33.2,60.4,73.7,116.7,120.1,167.7c4.6,5.1,9.3,10.2,14.1,15.2
		c22.2,23.3,45.3,45.8,70.1,66.3c10.5,8.7,20.9,18.2,27.1,30.4c8.2,16.1,5.9,33-5.4,46.7c-44.3,53.8-113.6-35.1-142-64.2
		c-48.5-49.7-92.7-103.7-130.5-162c-19.6-30.2-37.5-61.6-53.2-94c-8.1-16.7-15.6-33.7-22.4-51c-13.6-34.5-24.6-70-39.5-104.1
		c-11.9-27.3-40.3-46.2-70.5-37.4c-31.2,9.1-50.8,45.9-69.6,69.8c-24.9,31.6-49.8,63.1-74.7,94.6c-49.8,63.1-99.7,126.1-149.3,189.3
		c-3,3.8-6,7.6-8.9,11.4c-42.4,54-36.7,127.9,12.1,174.5c39.9,38.1,102.4,46.3,151.3,21.4c48.3-24.6,78-83.7,67.1-137
		c-5.2-25.7-18.8-48.9-33.9-70.4c-13.4-18.9-28.9-40.1-24.3-62.8c2.2-11,9.3-20.8,18.6-27.1c10.1-6.9,23.1-9.8,35-6.9
		c14.2,3.6,25.2,14.9,33.7,26.9c27.2,38.8,54.4,78.1,62.5,125.9c20.6,121.1-66.5,240.6-188.8,255.3
		C948.1,1255.4,881.7,1239.8,834.5,1200.7z"/>
	<path class="st0" d="M1165.5,201c0,101.2-82.1,195.2-183.3,195.2c-57.4,0-111.2-32.2-144.6-77.8c-24.8-33.8-38.5-75.5-38.5-117.4"
		/>
	<path d="M911.1,588.8c-2.5-14.8-11.4-28.3-21.8-39.5c-32.9-35.4-74.6-58.4-123.6-58.6c-21.7-0.1-43.5,3.8-63.5,12
		c-34.9,14.4-63.8,43-78.4,77.8c-6.9,16.4-10.2,33.9-15.3,50.9c-12.8,43.4-29.2,84.2-50.1,124.2c-17.3,32.8-38.5,64.1-59.3,94.8
		c-31.1,45.9-66.3,89.4-106.3,127.9c-12.3,11.9-25.1,23.3-38.3,34.2c-11.2,9.3-24.4,16.8-33.4,28.5c-6,7.9-6.8,17.7-5.5,27.3
		c1.3,9.5,5.1,19.1,11.2,26.5c22.4,27.5,59,17.4,82.2-2.9c20.1-17.5,39.3-36.9,57.9-56c19.9-20.4,38.7-41.8,56.7-63.9
		c2.5-3.1,5-6.2,7.5-9.3c27.3-34.1,52.7-69.7,76-106.7c30.2-48.2,58.1-98.9,79.1-151.8c9.2-23.1,15.4-46.7,23-70.2
		c6-18.7,16-35.9,35.2-43.2c26.8-10.1,57,0.5,73.4,23.4c4.4,6.1,8,12.7,12.7,18.5c16.5,20.4,46.5,18.5,64.9,1.5
		C907.7,622.7,913.9,605.4,911.1,588.8z"/>
</g>
</svg>
