<!--?xml version="1.0" encoding="utf-8"?-->
<!-- Generator: Adobe Illustrator 25.2.1, SVG Export Plug-In . SVG Version: 6.00 Build 0)  -->
<svg version="1.1" id="Layer_1" xmlns="http://www.w3.org/2000/svg" xmlns:xlink="http://www.w3.org/1999/xlink" x="0px" y="0px" viewBox="0 0 471 170" style="" xml:space="preserve">
<style type="text/css">
	.st0{fill:none;stroke:#000000;stroke-width:8.2424;stroke-linecap:round;stroke-miterlimit:10;}
	.st1{fill:none;stroke:#000000;stroke-width:9.1582;stroke-linecap:round;stroke-miterlimit:10;}
	.st2{fill:none;stroke:#000000;stroke-width:8.2424;stroke-linecap:round;stroke-linejoin:round;stroke-miterlimit:10;}
</style>
<path class="st0 ycVGaCyS_0" d="M79.3,42.4c0,0-29.3,45.3-36.4,85.4"></path>
<path class="st1 ycVGaCyS_1" d="M37.8,91.6c0,0,42.8,45.3,94.6,46.7"></path>
<path class="st0 ycVGaCyS_2" d="M41.5,95.2c34.3-1.7,74.9-20.3,93.1-50.5c7.1-11.8,1-22.9-11.9-25.8c-18-4.1-37.2,2.2-53.9,8.8
	c-17.4,6.8-33.7,16.7-47.8,29"></path>
<path class="st0 ycVGaCyS_3" d="M165.2,93.8c0,0-46.8,34.7-49.9,19.1c-1.8-8.9,3.9-17.3,10.5-22.7c2.7-2.2,7.9-6.5,11.7-5.5
	c5.4,1.4,4.1,8.9,1.6,12.4c-5.3,7.4-15.7,11.6-24,14.4"></path>
<path class="st0 ycVGaCyS_4" d="M187.9,83.3c0,0-11.4,26-18.3,32.7c-6.9,6.7-2.4-27.8-2.4-27.8"></path>
<path class="st0 ycVGaCyS_5" d="M205.4,88.8c-3.3,4.5-7.5,10.8-7.3,16.7c0.6,19.7,32.9-7.4,37-11.9"></path>
<path class="st0 ycVGaCyS_6" d="M215,70c0,0,0.9-6.7,7.7-19.2"></path>
<path class="st0 ycVGaCyS_7" d="M266.5,22.7c0,0-42.2,79.8-37.6,123.1"></path>
<path class="st0 ycVGaCyS_8" d="M199.9,50.8c0,0,67.9-16.3,116.9,2.6"></path>
<path class="st0 ycVGaCyS_9" d="M268.7,88c-2.8,1.1-5.4,3.3-8.3,5.7c-5.8,4.8-11.4,10.5-12.9,18.2c-1.2,6,12.2-2.8,13.5-3.6
	c5.8-3.8,11.7-8,17.2-12.5c0.8-0.6,3.9-2.5,4.1-3.4c0.3-1.3-1.3-2.1-2.4-2.9C275.5,86.6,272,86.6,268.7,88z"></path>
<path class="st0 ycVGaCyS_10" d="M283,91.8c0,0-8,25.8,5.7,24.1c13.7-1.7,33.7-22.2,33.7-22.2"></path>
<path class="st0 ycVGaCyS_11" d="M370.7,69c0,0,4.8-13.5,7.3-17.2"></path>
<path class="st2 ycVGaCyS_12" d="M355.2,7.8c0,0-36.6,81.3-30.5,103c0,0,21.7-2.2,35.2-20.5l2.1-4.7c0,0-12.2,24.8-3.4,27.3
	c8.7,2.5,31-17.3,31-17.3l1.8-1.3c0,0,20.6-13.9,26.8-9.8c6.2,4.1-10.9,23.4-10.9,23.4l10,5c0,0,23.6-14.7,34.8-19.7"></path>
<path class="st0 ycVGaCyS_13" d="M417.1,113.1c0.1,0,0.1,0.1,0.2,0.1c0.5,0.4,0.7,1,1,1.5c2,4.5,2.1,8,0.8,12.7c-1.9,6.8-4.5,13.4-7.1,20
	c-1.9,4.8-4.8,14.5-10.5,15.9c-4.3,1.1-6.7-4.6-6.9-8c-0.3-5.7,1.3-11.4,3.5-16.7c3.2-7.6,6.5-16.2,12.2-22.2
	C411.4,115.3,415.1,111.8,417.1,113.1z"></path>
<style data-made-with="vivus-instant">.ycVGaCyS_0{stroke-dasharray:94 96;stroke-dashoffset:95;animation:ycVGaCyS_draw 114ms linear 0ms forwards;}.ycVGaCyS_1{stroke-dasharray:108 110;stroke-dashoffset:109;animation:ycVGaCyS_draw 131ms linear 114ms forwards;}.ycVGaCyS_2{stroke-dasharray:256 258;stroke-dashoffset:257;animation:ycVGaCyS_draw 310ms linear 246ms forwards;}.ycVGaCyS_3{stroke-dasharray:141 143;stroke-dashoffset:142;animation:ycVGaCyS_draw 171ms linear 557ms forwards;}.ycVGaCyS_4{stroke-dasharray:69 71;stroke-dashoffset:70;animation:ycVGaCyS_draw 84ms linear 729ms forwards;}.ycVGaCyS_5{stroke-dasharray:67 69;stroke-dashoffset:68;animation:ycVGaCyS_draw 82ms linear 814ms forwards;}.ycVGaCyS_6{stroke-dasharray:21 23;stroke-dashoffset:22;animation:ycVGaCyS_draw 26ms linear 896ms forwards;}.ycVGaCyS_7{stroke-dasharray:131 133;stroke-dashoffset:132;animation:ycVGaCyS_draw 159ms linear 923ms forwards;}.ycVGaCyS_8{stroke-dasharray:119 121;stroke-dashoffset:120;animation:ycVGaCyS_draw 145ms linear 1082ms forwards;}.ycVGaCyS_9{stroke-dasharray:92 94;stroke-dashoffset:93;animation:ycVGaCyS_draw 112ms linear 1228ms forwards;}.ycVGaCyS_10{stroke-dasharray:71 73;stroke-dashoffset:72;animation:ycVGaCyS_draw 87ms linear 1340ms forwards;}.ycVGaCyS_11{stroke-dasharray:19 21;stroke-dashoffset:20;animation:ycVGaCyS_draw 24ms linear 1427ms forwards;}.ycVGaCyS_12{stroke-dasharray:332 334;stroke-dashoffset:333;animation:ycVGaCyS_draw 402ms linear 1451ms forwards;}.ycVGaCyS_13{stroke-dasharray:119 121;stroke-dashoffset:120;animation:ycVGaCyS_draw 145ms linear 1854ms forwards;}@keyframes ycVGaCyS_draw{100%{stroke-dashoffset:0;}}@keyframes ycVGaCyS_fade{0%{stroke-opacity:1;}93.54838709677419%{stroke-opacity:1;}100%{stroke-opacity:0;}}</style></svg>
